<svg width="186" height="43" viewBox="0 0 186 43" fill="none" xmlns="http://www.w3.org/2000/svg">
<g clip-path="url(#clip0_3801_5112)">
<path d="M57.4483 14.0434V23.1282C57.4483 26.6442 55.4036 29.6646 52.4526 31.0568C51.6858 31.4107 50.8493 31.6703 49.9896 31.7883C49.6178 31.8355 49.2228 31.8591 48.851 31.8591C48.456 31.8591 48.0842 31.8355 47.6892 31.7883C46.8295 31.6703 45.993 31.4343 45.2262 31.0568C42.2752 29.6646 40.2305 26.6442 40.2305 23.1282V14.0434H45.4353V23.7653C45.4353 23.8125 45.4353 23.8361 45.4353 23.8597V23.9305C45.4353 24.0013 45.4353 24.0721 45.4586 24.1429C45.4586 24.2845 45.4818 24.4025 45.505 24.5204C45.505 24.5676 45.5283 24.6148 45.5283 24.662C45.8536 26.1958 47.178 27.3757 48.8045 27.3993C48.8045 27.3993 48.8045 27.3993 48.8278 27.3993H48.944C48.944 27.3993 48.944 27.3993 48.9672 27.3993C50.5705 27.3757 51.8949 26.2194 52.2202 24.662C52.2202 24.6148 52.2435 24.5676 52.2435 24.5204C52.2667 24.4025 52.2899 24.2845 52.2899 24.1429C52.3132 24.0721 52.3132 24.0013 52.3132 23.9305V23.8833C52.3132 23.8361 52.3132 23.7889 52.3132 23.7417V14.0434H57.4483Z" fill="#161A1D"/>
<path d="M57.4485 12.0848L48.8512 8.3801L40.2307 12.0848L38 7.67219L48.8512 3L59.6792 7.67219L57.4485 12.0848Z" fill="#FCA311"/>
<path d="M73.063 27.0453V31.6231H70.3676C68.439 31.6231 66.9519 31.1511 65.8598 30.1837C64.791 29.2162 64.2566 27.6588 64.2566 25.5115V18.5268H62.1421V14.0434H64.2566V9.74872H69.5544V14.0434H73.0398V18.5268H69.5544V25.5823C69.5544 26.1014 69.6705 26.479 69.9261 26.7149C70.1817 26.9509 70.5768 27.0689 71.1577 27.0689H73.063V27.0453Z" fill="#161A1D"/>
<path d="M80.9401 30.7736C79.5925 30.0421 78.5236 28.9802 77.7336 27.6116C76.9668 26.243 76.5718 24.6384 76.5718 22.8214C76.5718 21.0045 76.9668 19.4235 77.7568 18.0549C78.5468 16.6862 79.6157 15.6244 80.9866 14.8929C82.3575 14.1614 83.8911 13.7838 85.5873 13.7838C87.2836 13.7838 88.8171 14.1614 90.1881 14.8929C91.559 15.6244 92.6278 16.6862 93.4179 18.0549C94.2079 19.4235 94.6029 21.0281 94.6029 22.8214C94.6029 24.6384 94.2079 26.2194 93.4179 27.588C92.6278 28.9566 91.5357 30.0185 90.1648 30.75C88.7939 31.4815 87.2603 31.8591 85.5641 31.8591C83.8214 31.8827 82.3111 31.5051 80.9401 30.7736ZM88.1201 26.0778C88.8404 25.3227 89.1889 24.2373 89.1889 22.8214C89.1889 21.4056 88.8404 20.3438 88.1433 19.5651C87.4462 18.81 86.5865 18.4324 85.5873 18.4324C84.5417 18.4324 83.7052 18.81 83.0081 19.5415C82.3343 20.2966 81.9858 21.382 81.9858 22.7978C81.9858 24.2137 82.3111 25.2755 82.9849 26.0542C83.6587 26.8093 84.4952 27.1869 85.5176 27.1869C86.54 27.2105 87.3997 26.8329 88.1201 26.0778Z" fill="#161A1D"/>
<path d="M105.547 14.5389C106.453 14.0434 107.522 13.7838 108.753 13.7838C110.171 13.7838 111.472 14.1614 112.634 14.8929C113.796 15.6244 114.702 16.6862 115.376 18.0549C116.05 19.4235 116.375 21.0045 116.375 22.8214C116.375 24.6384 116.05 26.2194 115.376 27.588C114.702 28.9566 113.796 30.0185 112.634 30.7736C111.472 31.5287 110.194 31.8827 108.753 31.8827C107.545 31.8827 106.5 31.6231 105.57 31.1276C104.641 30.632 103.92 29.9713 103.409 29.169V40H98.1113V14.0434H103.409V16.5211C103.92 15.7188 104.641 15.058 105.547 14.5389ZM109.892 19.6359C109.148 18.8808 108.242 18.4796 107.173 18.4796C106.128 18.4796 105.222 18.8808 104.478 19.6359C103.734 20.4146 103.386 21.4764 103.386 22.8214C103.386 24.1665 103.758 25.2283 104.478 26.007C105.222 26.7857 106.105 27.1633 107.173 27.1633C108.219 27.1633 109.125 26.7621 109.869 25.9834C110.612 25.2047 110.984 24.1193 110.984 22.7742C110.984 21.4528 110.612 20.391 109.892 19.6359Z" fill="#161A1D"/>
<path d="M129.736 18.0312C130.41 16.6626 131.316 15.6244 132.478 14.8692C133.639 14.1377 134.917 13.7602 136.358 13.7602C137.59 13.7602 138.658 14.0198 139.565 14.5153C140.494 15.0108 141.191 15.6715 141.679 16.4974V14.0434H146.977V31.6231H141.679V29.1454C141.168 29.9713 140.448 30.632 139.518 31.1275C138.589 31.6231 137.52 31.8826 136.312 31.8826C134.894 31.8826 133.616 31.5051 132.454 30.7736C131.293 30.0185 130.386 28.9566 129.713 27.588C129.039 26.2194 128.713 24.6148 128.713 22.8214C128.737 21.0045 129.062 19.3999 129.736 18.0312ZM140.61 19.6594C139.867 18.8807 138.984 18.5032 137.915 18.5032C136.846 18.5032 135.963 18.8807 135.219 19.6594C134.476 20.4381 134.127 21.4764 134.127 22.8214C134.127 24.1664 134.499 25.2283 135.219 26.0306C135.963 26.8093 136.846 27.2104 137.915 27.2104C138.984 27.2104 139.867 26.8329 140.61 26.0542C141.354 25.2755 141.702 24.2136 141.702 22.8686C141.702 21.5 141.331 20.4381 140.61 19.6594Z" fill="#161A1D"/>
<path d="M119.907 14.0434V31.6231H125.205V14.0434H119.907Z" fill="#161A1D"/>
<path d="M122.556 12.2264C121.789 12.2264 121.115 11.9668 120.581 11.4477C120.046 10.9286 119.768 10.2915 119.768 9.55995C119.768 8.82844 120.046 8.19133 120.604 7.67219C121.162 7.15306 121.812 6.89349 122.579 6.89349C123.346 6.89349 124.02 7.15306 124.554 7.67219C125.112 8.19133 125.367 8.82844 125.367 9.55995C125.367 10.2915 125.089 10.9286 124.554 11.4477C123.997 11.9668 123.323 12.2264 122.556 12.2264Z" fill="#161A1D"/>
</g>
<defs>
<clipPath id="clip0_3801_5112">
<rect width="109" height="37" fill="white" transform="translate(38 3)"/>
</clipPath>
</defs>
</svg>
