<svg width="22" height="20" viewBox="0 0 22 20" fill="none" xmlns="http://www.w3.org/2000/svg">
<path d="M19.2009 2.89331C20.1939 3.89024 20.7514 5.23999 20.7514 6.64706C20.7514 8.05414 20.1939 9.40389 19.2009 10.4008L11.0001 18.6666L2.79922 10.4008C2.06174 9.65835 1.55964 8.71484 1.3558 7.68839C1.15195 6.66195 1.25541 5.59818 1.65322 4.63025C2.05103 3.66232 2.72552 2.83324 3.59225 2.2468C4.45898 1.66035 5.47944 1.3426 6.52589 1.33331C7.92517 1.3418 9.2645 1.90245 10.2526 2.89331C10.5407 3.17847 10.7919 3.49877 11.0001 3.84665C11.2082 3.49877 11.4594 3.17847 11.7476 2.89331C12.2344 2.39937 12.8145 2.00714 13.4543 1.73942C14.0941 1.47169 14.7807 1.33382 15.4742 1.33382C16.1677 1.33382 16.8544 1.47169 17.4941 1.73942C18.1339 2.00714 18.7141 2.39937 19.2009 2.89331V2.89331Z" stroke="#161A1D" stroke-width="2" stroke-linecap="round" stroke-linejoin="round"/>
</svg>
