<svg width="20" height="22" viewBox="0 0 20 22" fill="none" xmlns="http://www.w3.org/2000/svg">
<path d="M14.3335 5.58333C14.3335 6.44039 14.0794 7.27819 13.6032 7.9908C13.127 8.70342 12.4503 9.25883 11.6585 9.58681C10.8666 9.91479 9.99536 10.0006 9.15477 9.8334C8.31419 9.6662 7.54206 9.25349 6.93603 8.64746C6.33001 8.04144 5.9173 7.26931 5.75009 6.42872C5.58289 5.58814 5.6687 4.71685 5.99668 3.92504C6.32466 3.13323 6.88008 2.45645 7.59269 1.9803C8.30531 1.50415 9.14311 1.25 10.0002 1.25C11.1494 1.25 12.2516 1.70655 13.0643 2.5192C13.877 3.33186 14.3335 4.43406 14.3335 5.58333ZM13.2502 14.25H6.75016C5.31357 14.25 3.93582 14.8207 2.92 15.8365C1.90418 16.8523 1.3335 18.2301 1.3335 19.6667V19.6667C1.3335 19.954 1.44763 20.2295 1.6508 20.4327C1.85396 20.6359 2.12951 20.75 2.41683 20.75H17.5835C17.8708 20.75 18.1464 20.6359 18.3495 20.4327C18.5527 20.2295 18.6668 19.954 18.6668 19.6667C18.6668 18.2301 18.0961 16.8523 17.0803 15.8365C16.0645 14.8207 14.6868 14.25 13.2502 14.25Z" stroke="#161A1D" stroke-width="2" stroke-linecap="round" stroke-linejoin="round"/>
</svg>
